<svg xmlns="http://www.w3.org/2000/svg" viewBox="0 0 68.56 68.56"><defs><style>.cls-1{fill:#475353;}</style></defs><g id="Layer_2" data-name="Layer 2"><g id="Layer_1-2" data-name="Layer 1"><path class="cls-1" d="M34.28,6.18c9.15,0,10.24,0,13.85.2A19,19,0,0,1,54.5,7.56a10.58,10.58,0,0,1,3.94,2.56A10.58,10.58,0,0,1,61,14.06a19,19,0,0,1,1.18,6.37c.17,3.61.2,4.7.2,13.85s0,10.24-.2,13.85A19,19,0,0,1,61,54.5,11.31,11.31,0,0,1,54.5,61a19,19,0,0,1-6.37,1.18c-3.61.17-4.7.2-13.85.2s-10.24,0-13.85-.2A19,19,0,0,1,14.06,61a10.58,10.58,0,0,1-3.94-2.56A10.58,10.58,0,0,1,7.56,54.5a19,19,0,0,1-1.18-6.37c-.17-3.61-.2-4.7-.2-13.85s0-10.24.2-13.85a19,19,0,0,1,1.18-6.37,10.58,10.58,0,0,1,2.56-3.94,10.58,10.58,0,0,1,3.94-2.56,19,19,0,0,1,6.37-1.18c3.61-.17,4.7-.2,13.85-.2m0-6.18C25,0,23.8,0,20.15.21A24.92,24.92,0,0,0,11.83,1.8a17.45,17.45,0,0,0-10,10A24.92,24.92,0,0,0,.21,20.15C0,23.8,0,25,0,34.28S0,44.76.21,48.41A24.92,24.92,0,0,0,1.8,56.73a17.45,17.45,0,0,0,10,10,24.92,24.92,0,0,0,8.32,1.59c3.65.17,4.82.21,14.13.21s10.48,0,14.13-.21a24.92,24.92,0,0,0,8.32-1.59,17.45,17.45,0,0,0,10-10,24.92,24.92,0,0,0,1.59-8.32c.17-3.65.21-4.82.21-14.13s0-10.48-.21-14.13a24.92,24.92,0,0,0-1.59-8.32,17.45,17.45,0,0,0-10-10A24.92,24.92,0,0,0,48.41.21C44.76,0,43.59,0,34.28,0"/><path class="cls-1" d="M34.28,16.68a17.6,17.6,0,1,0,17.6,17.6,17.6,17.6,0,0,0-17.6-17.6m0,29A11.43,11.43,0,1,1,45.71,34.28,11.43,11.43,0,0,1,34.28,45.71"/><path class="cls-1" d="M56.69,16a4.12,4.12,0,1,1-4.11-4.11A4.12,4.12,0,0,1,56.69,16"/></g></g></svg>