<svg xmlns="http://www.w3.org/2000/svg" viewBox="0 0 352.28 175.02"><defs><style>.cls-1{fill:#475353;}.cls-2{fill:#231f20;}</style></defs><g id="Layer_2" data-name="Layer 2"><g id="Layer_1-2" data-name="Layer 1"><rect class="cls-1" y="111.85" width="92.28" height="63.17"/><polygon class="cls-1" points="218.75 97.4 168.59 97.4 168.59 97.4 54.7 97.4 54.7 97.4 4.54 97.4 111.64 0 218.75 97.4"/><path class="cls-2" d="M107.09,174.09v-32h-5.7V133h5.7v-1.84c0-9.31,6.8-14.09,16.36-14.09a29.57,29.57,0,0,1,15,4.19l-4.11,8.39a16.17,16.17,0,0,0-10.06-3.44c-3.86,0-5.2,2-5.2,5.12V133h23.82v41.1h-12v-32H119.09v32Z"/><path class="cls-2" d="M149.2,174.09V133h12v11.92c1.34-6.71,5.28-12.75,13.75-12.75,7.8,0,12.59,4.78,12.59,13.25v28.68h-12V149.6c0-5-1.34-8.13-6.79-8.13-5.71,0-7.55,3.18-7.55,9.89v22.73Z"/><path class="cls-2" d="M191.31,153.54c0-13.58,6.29-21.38,15.77-21.38,8.56,0,11.91,6,13.09,12.58V117.9h12v56.19h-12V162.52c-1.09,6.63-4,12.5-12.59,12.5C197.6,175,191.31,167.22,191.31,153.54Zm21.06,12.08c5,0,7.8-3.1,7.8-9.81v-4.45c0-6.71-2.86-9.89-8-9.89-5.29,0-8.73,4.27-8.73,12.07S206.91,165.62,212.37,165.62Z"/><path class="cls-2" d="M236.61,153.54c0-12.66,8-21.38,20-21.38,13.09,0,19.63,8.72,19.63,19.46a26.29,26.29,0,0,1-.42,5h-28c.75,5.79,4.61,8.55,10,8.55,5.79,0,8.89-2.51,10.4-6l7.3,7.3c-3.11,4.45-8.64,8.47-17.87,8.47C244.58,174.93,236.61,166.21,236.61,153.54Zm11.24-3.77h17.61c-.42-5.45-3.35-8.39-8.72-8.39C251.62,141.38,248.43,144.23,247.85,149.77Z"/><path class="cls-2" d="M281.06,174.09V133h12v12.92c1.34-6.88,5.37-13.75,13.25-13.75,6,0,9.4,3.85,9.4,10.31a19.21,19.21,0,0,1-2.35,9.57H301.78a11,11,0,0,0,2.94-6.8c0-2.35-1.09-4.11-3.69-4.11-4.11,0-8,4.45-8,11.24v21.72Z"/><path class="cls-2" d="M315.2,166.63l5.54-8.14c3.44,3.69,9.39,7.3,15.6,7.3,3.27,0,5.2-1,5.2-3.19s-2.35-3-6.71-4.11l-5.53-1.34c-7.39-1.93-12.75-4.86-12.75-12.08,0-8,6.54-12.83,16.6-12.83,8.89,0,15.35,3.86,18.2,7.47l-5.36,8c-4-4.2-9.06-6.46-13.84-6.46-2.94,0-4.7,1.09-4.7,3.1,0,2.18,1.76,3,7.21,4.53l4.62,1.26c9.06,2.43,13,5.95,13,12.25,0,8-6.71,12.49-16.27,12.49C326.86,174.93,318.73,171.58,315.2,166.63Z"/></g></g></svg>