<svg xmlns="http://www.w3.org/2000/svg" viewBox="0 0 66.62 54.14"><defs><style>.cls-1{fill:#475353;}</style></defs><g id="Layer_2" data-name="Layer 2"><g id="Layer_1-2" data-name="Layer 1"><path class="cls-1" d="M0,48a38.66,38.66,0,0,0,21,6.14c25.38,0,39.71-21.43,38.85-40.66a27.62,27.62,0,0,0,6.82-7.07,27.57,27.57,0,0,1-7.85,2.15,13.71,13.71,0,0,0,6-7.56A27.72,27.72,0,0,1,56.1,4.32,13.67,13.67,0,0,0,32.81,16.78,38.79,38.79,0,0,1,4.64,2.5,13.68,13.68,0,0,0,8.87,20.75,13.64,13.64,0,0,1,2.68,19a13.7,13.7,0,0,0,11,13.58,13.73,13.73,0,0,1-6.17.23,13.66,13.66,0,0,0,12.77,9.49A27.45,27.45,0,0,1,0,48Z"/></g></g></svg>