<svg xmlns="http://www.w3.org/2000/svg" viewBox="0 0 69.16 48.73"><defs><style>.cls-1{fill:#475353;}</style></defs><g id="Layer_2" data-name="Layer 2"><g id="Layer_1-2" data-name="Layer 1"><path class="cls-1" d="M67.72,7.61A8.7,8.7,0,0,0,61.6,1.46C56.21,0,34.58,0,34.58,0S13,0,7.56,1.46A8.7,8.7,0,0,0,1.44,7.61C0,13,0,24.37,0,24.37S0,35.69,1.44,41.12a8.7,8.7,0,0,0,6.12,6.16c5.39,1.45,27,1.45,27,1.45s21.63,0,27-1.45a8.7,8.7,0,0,0,6.12-6.16c1.44-5.43,1.44-16.75,1.44-16.75S69.16,13,67.72,7.61Zm-40.21,27V14.08L45.58,24.37Z"/></g></g></svg>